<?xml version="1.0" standalone="yes"?>
<svg xmlns="http://www.w3.org/2000/svg" width="200" height="200">
<path style="fill:#fefdfd; stroke:none;" d="M0 0L0 200L200 200L200 0L0 0z"/>
<path style="fill:#79bfe0; stroke:none;" d="M89 23L88 26L89 26L89 23M101 23L101 24L104 24L101 23z"/>
<path style="fill:#4c7237; stroke:none;" d="M89 24L89 33L91 33L91 24L89 24z"/>
<path style="fill:#79bfe0; stroke:none;" d="M99 24L100 25L99 24z"/>
<path style="fill:#4c7237; stroke:none;" d="M104 31C100.341 30.4948 100.424 28.2721 101 25L105 25C94.8023 21.051 98.679 36.8578 104 31M79 25L80 30L73 27L76 36L77 36L76 30L83 34L79 25z"/>
<path style="fill:#79bfe0; stroke:none;" d="M101.667 25.3333L102.333 25.6667L101.667 25.3333M104 25L105 26L104 25M73.6667 26.3333L74.3333 26.6667L73.6667 26.3333M79.3333 26.6667L79.6667 27.3333L79.3333 26.6667M81 26L82 27L81 26M97 27L97 30L98 30L97 27M119 27L120 28L119 27z"/>
<path style="fill:#4c7237; stroke:none;" d="M120 27L117 36L120 33L123 34L121 29L125 30L120 27z"/>
<path style="fill:#79bfe0; stroke:none;" d="M121 27L122 28L121 27M73 28L74 29L73 28M124 28L125 29L124 28M121 29L122 30L121 29z"/>
<path style="fill:#fefdfd; stroke:none;" d="M76 30L77 31L76 30z"/>
<path style="fill:#79bfe0; stroke:none;" d="M82 30L83 31L82 30M91 30L91 33L92 33L91 30M100 30L101 31L100 30M118 30L119 31L118 30M124 30L125 31L124 30M61 31L62 32L61 31z"/>
<path style="fill:#4c7237; stroke:none;" d="M62 31L61 32L62 41L70 38L62 31z"/>
<path style="fill:#79bfe0; stroke:none;" d="M76.3333 31.6667L76.6667 32.3333L76.3333 31.6667M102 31L103 32L102 31M121 31L122 32L121 31M74 32L75 33L74 32M99 32L100 33L99 32M104 32L105 33L104 32M63 33L63 36L65 35L65 34L63 33M102 33L103 34L102 33M117 33L118 34L117 33M120 33L121 34L120 33M131 33L132 34L131 33z"/>
<path style="fill:#4c7237; stroke:none;" d="M132.133 33.9707C127.465 35.1188 129.007 43.4926 133.91 42.2484C139.019 40.9518 137.339 32.6902 132.133 33.9707z"/>
<path style="fill:#79bfe0; stroke:none;" d="M134 33L135 34L134 33M61 34L61 38L62 38L61 34M81 34L82 35L81 34M119 34L120 35L119 34z"/>
<path style="fill:#fefdfd; stroke:none;" d="M64 35L65 36L64 35z"/>
<path style="fill:#79bfe0; stroke:none;" d="M75 35L76 36L75 35M132 35L132 36L135 36L132 35M118 36L119 37L118 36z"/>
<path style="fill:#fefdfd; stroke:none;" d="M131 36L132 41L134 41L135 36L131 36z"/>
<path style="fill:#79bfe0; stroke:none;" d="M137 36L138 37L137 36M66 37L67 38L66 37M128 37L128 40L129 40L128 37M135.333 37.6667L135.667 38.3333L135.333 37.6667M50 38L51 39L50 38z"/>
<path style="fill:#4c7237; stroke:none;" d="M54 41L55 46C50.0877 44.4932 51.1537 41.9619 53 38C36.9096 44.1555 64.0669 51.2724 54 41z"/>
<path style="fill:#79bfe0; stroke:none;" d="M64 38L65 39L64 38M68 38L69 39L68 38M130 38L131 39L130 38M137 39L138 40L137 39M48 40L49 41L48 40M131 40L132 41L131 40M53 41L54 42L53 41M62 41L63 42L62 41M129 41L130 42L129 41M47.3333 42.6667L47.6667 43.3333L47.3333 42.6667M52 42L53 43L52 42M143 43L141 46L143 43z"/>
<path style="fill:#4c7237; stroke:none;" d="M144.144 44.1366C139.704 46.2416 142.125 53.8006 146.856 51.8241C151.643 49.8241 149.215 41.7327 144.144 44.1366z"/>
<path style="fill:#79bfe0; stroke:none;" d="M147 43L148 44L147 43M57 44L58 45L57 44M54 45L55 46L54 45M144 45L143 47L144 45z"/>
<path style="fill:#fefdfd; stroke:none;" d="M143 50C146.49 49.4193 147.547 48.5602 147 45L143 50z"/>
<path style="fill:#79bfe0; stroke:none;" d="M150.333 47.6667L150.667 48.3333L150.333 47.6667M52 48L53 49L52 48M40.6667 49.3333L41.3333 49.6667L40.6667 49.3333M147 49L148 50L147 49z"/>
<path style="fill:#4c7237; stroke:none;" d="M37 54L45 59L43 55L48 55C44.317 51.2353 40.3158 48.6103 37 54z"/>
<path style="fill:#79bfe0; stroke:none;" d="M141 50L142 51L141 50M144.667 50.3333L145.333 50.6667L144.667 50.3333M149 50L150 51L149 50M142 51L143 52L142 51M148 51L149 52L148 51M37 52L38 53L37 52z"/>
<path style="fill:#fefdfd; stroke:none;" d="M40 52L40 54L42 54L42 52L40 52z"/>
<path style="fill:#beda25; stroke:none;" d="M59 82L90 82L88 78L89 77L94 79L94 75C90.0119 73.6005 87.2033 72.5132 87 68L91 70L90 65L94 68L99 67L97 77L101 76L99 82L113 83L113 82L105 82L107 77L115 77C112.554 71.817 109.458 69.8645 104 72C104.975 64.9924 102.105 61.3893 95 61C92.6 52.9234 84.8304 55.7189 84 63C74.5351 60.5721 46.0632 40.5404 52.3418 65.8958C53.8216 71.8716 58.6407 74.9847 59 82z"/>
<path style="fill:#79bfe0; stroke:none;" d="M143 52L144 53L143 52M47 53L48 54L47 53M156 54L157 55L156 54M39 55L40 56L39 55M45.6667 55.3333L46.3333 55.6667L45.6667 55.3333z"/>
<path style="fill:#4c7237; stroke:none;" d="M149 59C153.746 66.5907 159.947 63.2788 158 55L149 59z"/>
<path style="fill:#79bfe0; stroke:none;" d="M40 56L41 57L40 56M153 56L154 57L153 56M158 56L159 57L158 56z"/>
<path style="fill:#beda25; stroke:none;" d="M115.015 57.6535C102.344 61.6871 116.766 79.5694 124.896 76.392C136.466 71.87 126.145 54.1109 115.015 57.6535z"/>
<path style="fill:#79bfe0; stroke:none;" d="M151 57L152 58L151 57M156 57L157 58L156 57M150 58L151 59L150 58M154 58L155 59L154 58z"/>
<path style="fill:#fefdfd; stroke:none;" d="M152 60L152 61C155.137 61.4943 156 61.0359 157 58L152 60z"/>
<path style="fill:#79bfe0; stroke:none;" d="M157 59L158 60L157 59M159.333 59.6667L159.667 60.3333L159.333 59.6667M150 61L151 62L150 61M156 61L157 62L156 61M32 62L31 64L32 62z"/>
<path style="fill:#4c7237; stroke:none;" d="M33.314 63.0718C28.6477 65.8448 32.8725 73.0609 37.5633 69.9568C41.7754 67.1694 37.6881 60.4724 33.314 63.0718z"/>
<path style="fill:#79bfe0; stroke:none;" d="M37 62L38 63L37 62M157 63L158 64L157 63M33 64L33 69L34 69L33 64z"/>
<path style="fill:#fefdfd; stroke:none;" d="M34 64C33.4532 67.5469 34.4531 68.5468 38 68L34 64z"/>
<path style="fill:#79bfe0; stroke:none;" d="M36 64L37 65L36 64M39 64L40 65L39 64M154.667 64.3333L155.333 64.6667L154.667 64.3333M30 65L30 68L31 68L30 65M37 65L38 66L37 65z"/>
<path style="fill:#4c7237; stroke:none;" d="M90 65L91 70L87 68C86.2697 72.8254 89.8354 73.8449 94 75L94 79L89 77L88 78C91.4853 84.3206 99.3565 82.6885 101 76L97 77L99 67L94 68L90 65z"/>
<path style="fill:#beda25; stroke:none;" d="M131 67L131 68L134 68L131 67z"/>
<path style="fill:#79bfe0; stroke:none;" d="M39 68L40 69L39 68z"/>
<path style="fill:#f26b4f; stroke:none;" d="M109 69L115 77L107 77L105 82C108.525 81.9973 112.633 82.5293 115.272 79.6821C119.911 74.676 114.393 68.9196 109 69z"/>
<path style="fill:#4c7237; stroke:none;" d="M130 68C128.095 74.4077 124.76 77.5297 118 76L114 82C123.625 82 135.371 84.1106 142 76L134 75C136.305 70.4559 135.027 68.3918 130 68z"/>
<path style="fill:#beda25; stroke:none;" d="M135 68L136 69L135 68z"/>
<path style="fill:#79bfe0; stroke:none;" d="M32 70L33 71L32 70z"/>
<path style="fill:#beda25; stroke:none;" d="M136.333 70.6667L136.667 71.3333L136.333 70.6667z"/>
<path style="fill:#79bfe0; stroke:none;" d="M34.6667 71.3333L35.3333 71.6667L34.6667 71.3333M89 73L90 74L89 73z"/>
<path style="fill:#beda25; stroke:none;" d="M135 73L136 74L135 73z"/>
<path style="fill:#79bfe0; stroke:none;" d="M134 74L135 75L134 74z"/>
<path style="fill:#beda25; stroke:none;" d="M137.667 74.3333L138.333 74.6667L137.667 74.3333M141 75L142 76L141 75M135 84C124.228 80.1777 115.96 84.9499 122 97L128 92L131 104L136 96L140 105C147.058 99.291 151.213 92.7844 145 85C166.298 84.9977 143.668 66.2225 135 84M116 78L117 79L116 78M115 79L116 80L115 79z"/>
<path style="fill:#79bfe0; stroke:none;" d="M57 83C57.0062 92.4385 59.2315 99.4345 65 107L66 107C74.4277 101.369 86.2162 104.877 96 105L96 101C89.5493 96.9929 96.7362 91.6197 102.039 91.0363C105.908 90.6106 110.2 94.777 113 97L114 97L123 82L57 83M131 82L131 83L135 84L131 82z"/>
<path style="fill:#beda25; stroke:none;" d="M96 101L95 104L110 112C112.114 104.864 114.792 89.1666 102.039 90.5764C96.9749 91.1363 87.9274 97.753 96 101z"/>
<path style="fill:#f26b4f; stroke:none;" d="M119 91C115.925 93.8959 113.084 96.8579 111.803 101C104.49 124.658 143.827 134.5 147.15 110C147.645 106.347 146.851 102.535 146 99L140 105L136 96L131 104L128 92L122 97L119 91z"/>
<path style="fill:#beda25; stroke:none;" d="M56 110L56 111C50.4657 111.431 48.693 115.947 55 117L55 118C52.7774 119.439 50.6859 123.927 55.1481 124.288C58.2737 124.541 61.5022 121.533 64 120L64 108C61.578 106.287 58.3568 103.264 55.1489 103.546C50.1349 103.985 53.8342 108.803 56 110z"/>
<path style="fill:#f26b4f; stroke:none;" d="M73 103.508C63.7326 104.884 58.3754 117.386 68.044 122.543C75.2544 126.389 95.2013 123.729 102.996 121.566C110.002 119.622 112.162 110.009 104.895 106.728C97.8829 103.561 80.4197 102.406 73 103.508z"/>
<path style="fill:#beda25; stroke:none;" d="M94 105L95 106L94 105z"/>
<path style="fill:#79bfe0; stroke:none;" d="M110 111L110 116L114 116L110 111z"/>
<path style="fill:#beda25; stroke:none;" d="M108 118L109 119L108 118M107 119L108 120L107 119M104 121L105 122L104 121M67 122L68 123L67 122M126 124L127 125L126 124z"/>
<path style="fill:#79bfe0; stroke:none;" d="M68 127L68 128L74 128L68 127M84 127L84 128L87 128L84 127M100.667 127.333L101.333 127.667L100.667 127.333M110 127L110 128L113 128L110 127M134 127L134 128L137 128L134 127z"/>
<path style="fill:#4c7237; stroke:none;" d="M65 128L61 151C67.0934 150.502 78.9874 147.038 73 139C80.0178 130.2 73.5487 128.001 65 128z"/>
<path style="fill:#79bfe0; stroke:none;" d="M75 128L76 129L75 128M79 128L80 129L79 128z"/>
<path style="fill:#4c7237; stroke:none;" d="M75 150C79.7191 149.213 80.1432 146.324 81 142L82 142L84 150L88 149L85 139C93.0179 134.792 88.9283 124.385 80.3171 128.742C75.8228 131.016 75.3668 145.39 75 150z"/>
<path style="fill:#79bfe0; stroke:none;" d="M92 128L93 129L92 128z"/>
<path style="fill:#4c7237; stroke:none;" d="M89 150L110 148C113.063 151.505 118.821 149.33 123 149L123 145L117 145L126 129L113 130C103.3 118.899 100.22 143.879 100 149L99 149L99 146L94 146L100 140L100 137L96 137C96.8068 133.127 98.0594 131.642 102 131L102 128C89.7188 128.009 89.4621 139.265 89 150z"/>
<path style="fill:#79bfe0; stroke:none;" d="M103 128L104 129L103 128M122 128L122 129L126 129L122 128M127 128L128 129L127 128z"/>
<path style="fill:#4c7237; stroke:none;" d="M124 150C128.269 149.909 131.487 149.692 134 146L129 146L135 137L131 137L137 128C124.51 128.01 124.224 139.139 124 150z"/>
<path style="fill:#79bfe0; stroke:none;" d="M76 129L77 130L76 129M113 129L114 130L113 129M64.3333 130.667L64.6667 131.333L64.3333 130.667M90 130L91 135L92 135L90 130M112 130L107 132L107 133L113 131L112 130M136 130L137 131L136 130M97 131L97 132L103 133L97 131z"/>
<path style="fill:#fefdfd; stroke:none;" d="M112 131L107 137L111 137L106 141L105 146C111.482 144.688 114.877 139.481 118 134L113 135L112 131z"/>
<path style="fill:#79bfe0; stroke:none;" d="M126 131L125 133L127 133L126 131M132 131L132 132L136 132L132 131M69 132L70 133L69 132z"/>
<path style="fill:#fefdfd; stroke:none;" d="M70 132L69 135L72 133L70 132z"/>
<path style="fill:#79bfe0; stroke:none;" d="M71 132L72 133L71 132z"/>
<path style="fill:#fefdfd; stroke:none;" d="M83 132L82 137L86 132L83 132M97 132L96 137L100 137L100 141C96.5256 141.577 95.5765 142.526 95 146L99 147L100 147L102 132L97 132z"/>
<path style="fill:#79bfe0; stroke:none;" d="M131.333 132.667L131.667 133.333L131.333 132.667M72 133L73 134L72 133M77 133L76 135L78 135L77 133M82.3333 133.667L82.6667 134.333L82.3333 133.667M86 133L87 134L86 133z"/>
<path style="fill:#fefdfd; stroke:none;" d="M90 133C87.6143 138.507 86.1244 141.017 88 147L89 147L90 133z"/>
<path style="fill:#79bfe0; stroke:none;" d="M96.3333 133.667L96.6667 134.333L96.3333 133.667z"/>
<path style="fill:#fefdfd; stroke:none;" d="M125 133L117 145L123 144L123 148L124 148L125 133z"/>
<path style="fill:#79bfe0; stroke:none;" d="M71 134L72 135L71 134M113 134L114 135L113 134M69 135L70 136L69 135z"/>
<path style="fill:#fefdfd; stroke:none;" d="M76 135L73 138L73 139L75 144L76 144L76 135z"/>
<path style="fill:#79bfe0; stroke:none;" d="M89 135L90 136L89 135M123 135L124 136L123 135M63 136L63 139L64 139L63 136M83 136L84 137L83 136M101.333 136.667L101.667 137.333L101.333 136.667M116 136L117 137L116 136M125.333 137.667L125.667 138.333L125.333 137.667M90.3333 138.667L90.6667 139.333L90.3333 138.667M110.333 138.667L110.667 139.333L110.333 138.667M121 138L122 139L121 138M68 139L69 140L68 139M76.3333 139.667L76.6667 140.333L76.3333 139.667M85.3333 139.667L85.6667 140.333L85.3333 139.667M134 139L135 140L134 139z"/>
<path style="fill:#fefdfd; stroke:none;" d="M68 140L68 144L71 140L68 140z"/>
<path style="fill:#79bfe0; stroke:none;" d="M96 140L96 141L100 141L96 140M106 140L106 141L110 141L106 140M113 140L114 141L113 140M131 140L131 141L134 141L131 140M71 141L72 142L71 141M95 141L96 142L95 141M119 141L120 142L119 141M62.3333 142.667L62.6667 143.333L62.3333 142.667M67.3333 142.667L67.6667 143.333L67.3333 142.667M81 142L82 143L81 142M86 142L87 143L86 142M100.333 142.667L100.667 143.333L100.333 142.667M124.333 142.667L124.667 143.333L124.333 142.667M89.3333 143.667L89.6667 144.333L89.3333 143.667M105.333 143.667L105.667 144.333L105.333 143.667M111 143L112 144L111 143M75 144L74 146L76 146L75 144M80.3333 144.667L80.6667 145.333L80.3333 144.667M110 144L111 145L110 144M120 144L120 145L123 145L120 144M129.333 144.667L129.667 145.333L129.333 144.667M82 145L83 146L82 145M87 145L88 146L87 145M94 145L95 146L94 145M97.6667 145.333L98.3333 145.667L97.6667 145.333M108.667 145.333L109.333 145.667L108.667 145.333M132.667 145.333L133.333 145.667L132.667 145.333M61 147L62 148L61 147M88 147L88 151L92 151L92 150L88 147M99.3333 147.667L99.6667 148.333L99.3333 147.667M133.333 147.667L133.667 148.333L133.333 147.667M71 148L72 149L71 148M109 148L106 149L106 150L109 148M118 149L118 150L126 151L126 150L124 148L118 149M69 149L70 150L69 149M74 149L74 151L76 151L74 149M79 149L80 150L79 149M83 149L84 150L83 149M96.6667 149.333L97.3333 149.667L96.6667 149.333M130 149L130 150L133 150L130 149M65.6667 150.333L66.3333 150.667L65.6667 150.333M99 150L99 151L102 151L99 150M110 150L111 151L110 150z"/>
</svg>
