<?xml version="1.0" standalone="no"?>
<!DOCTYPE svg PUBLIC "-//W3C//DTD SVG 20010904//EN"
 "http://www.w3.org/TR/2001/REC-SVG-20010904/DTD/svg10.dtd">
<svg version="1.0" xmlns="http://www.w3.org/2000/svg"
 width="200.000000pt" height="81.000000pt" viewBox="0 0 200.000000 81.000000"
 preserveAspectRatio="xMidYMid meet">

<g transform="translate(0.000000,81.000000) scale(0.100000,-0.100000)"
fill="#000000" stroke="none">
<path d="M309 757 c-104 -29 -190 -104 -237 -206 -22 -47 -27 -70 -27 -146 0
-80 3 -97 31 -155 53 -112 162 -195 270 -208 l46 -5 -4 84 c-2 46 -10 97 -18
114 -17 33 -52 44 -77 23 -10 -8 -18 -9 -20 -3 -2 6 -24 9 -51 8 -40 -2 -43
-1 -17 6 17 5 45 9 64 10 41 1 37 10 -5 12 -42 2 -64 9 -64 20 0 6 10 7 23 4
19 -6 17 -3 -10 23 -18 17 -33 34 -33 38 0 5 5 3 12 -4 16 -16 28 -15 28 2 0
22 29 28 53 11 12 -8 27 -15 34 -15 25 0 -17 50 -48 58 -16 4 -29 10 -29 15 0
4 0 17 0 28 0 20 1 20 21 -5 27 -35 35 -27 14 14 -19 36 -12 53 10 24 9 -12
14 -14 15 -6 0 9 7 11 20 7 11 -3 20 -4 20 0 0 16 -31 63 -45 68 -8 4 -15 11
-15 18 0 6 6 9 14 6 8 -3 16 2 19 15 3 11 10 17 16 13 8 -4 8 -12 1 -25 -6
-11 -6 -21 -1 -24 5 -4 12 7 16 24 10 48 23 26 19 -33 -3 -38 1 -59 12 -73 14
-18 14 -18 4 6 -9 20 -5 18 19 -10 44 -50 39 -24 -17 94 -3 5 0 6 7 2 6 -4 11
-2 11 5 0 18 17 -1 24 -26 3 -12 4 -10 2 7 -4 33 21 47 27 15 3 -13 5 -7 6 15
0 20 5 39 10 42 12 8 22 -47 10 -58 -5 -6 -9 -15 -9 -20 0 -6 5 -5 12 2 22 22
32 12 10 -11 -23 -25 -45 -126 -24 -113 6 3 12 -3 15 -16 3 -17 5 -14 6 10 0
17 -3 32 -9 32 -5 0 -10 4 -10 10 0 5 7 7 15 4 11 -5 15 1 15 19 0 40 17 41
24 1 5 -23 3 -41 -6 -52 -7 -9 0 -6 15 7 14 13 29 31 32 40 3 9 14 17 26 18
20 2 20 1 5 -16 -15 -17 -15 -19 -1 -24 8 -4 15 -11 15 -17 0 -6 -5 -8 -11 -5
-14 9 -61 -3 -54 -15 3 -5 -4 -11 -15 -15 -21 -7 -58 -65 -41 -65 5 0 11 7 15
15 3 8 11 12 19 9 8 -3 20 2 27 11 19 23 31 18 19 -9 -7 -14 -22 -27 -35 -30
-13 -4 -24 -11 -24 -17 0 -6 -8 -8 -19 -4 -20 6 -35 -8 -45 -42 -10 -33 19
-30 41 3 17 26 61 50 72 39 3 -3 -1 -11 -9 -16 -16 -12 -18 -12 38 5 16 6 22
3 22 -8 0 -12 -11 -16 -37 -17 -21 -1 -30 -3 -20 -6 28 -7 19 -23 -13 -23 -17
0 -46 -7 -65 -14 l-35 -15 0 -102 0 -102 42 6 c115 15 233 115 278 234 31 82
25 206 -13 284 -58 119 -179 199 -311 206 -39 1 -92 -3 -117 -10z"/>
<path d="M980 420 l0 -120 35 0 c19 0 45 5 59 12 33 14 45 68 23 101 -10 15
-12 29 -6 38 13 20 11 63 -3 77 -7 7 -34 12 -60 12 l-48 0 0 -120z m98 63 c3
-27 -1 -33 -22 -39 -45 -11 -61 -2 -64 39 l-3 38 43 -3 c40 -3 43 -5 46 -35z
m8 -87 c9 -36 -4 -65 -31 -72 -47 -12 -60 -2 -63 49 l-3 47 45 0 c40 0 46 -3
52 -24z"/>
<path d="M1150 425 c0 -70 4 -115 10 -115 6 0 10 23 10 50 0 46 2 50 24 50 18
0 30 -13 54 -57 17 -32 32 -50 32 -39 0 10 -10 36 -22 57 l-22 39 22 16 c16
11 22 25 22 54 0 47 -18 60 -84 60 l-46 0 0 -115z m108 83 c32 -32 0 -78 -54
-78 -34 0 -34 0 -34 45 l0 45 38 0 c21 0 43 -5 50 -12z"/>
<path d="M1330 420 l0 -120 59 0 c78 0 89 18 14 22 l-58 3 -3 43 c-3 41 -2 42
27 42 38 0 41 18 4 22 -25 3 -28 7 -31 46 l-3 42 55 0 c30 0 58 5 61 10 4 6
-18 10 -59 10 l-66 0 0 -120z"/>
<path d="M1492 423 l3 -118 63 -3 c38 -2 62 1 62 8 0 6 -23 10 -55 10 l-55 0
0 45 c0 41 2 45 24 45 14 0 28 5 31 10 4 6 -7 10 -24 10 -30 0 -31 1 -31 45
l0 45 55 0 c30 0 55 5 55 10 0 6 -28 10 -65 10 l-66 0 3 -117z"/>
<path d="M1650 530 c0 -5 23 -10 51 -10 l51 0 -55 -104 c-31 -57 -53 -107 -50
-110 11 -10 133 -7 133 4 0 6 -25 10 -55 10 -30 0 -55 2 -55 4 0 3 25 52 56
110 l56 106 -66 0 c-37 0 -66 -4 -66 -10z"/>
<path d="M1820 420 l0 -120 59 0 c78 0 89 18 14 22 l-58 3 -3 43 c-3 41 -2 42
27 42 38 0 41 18 4 22 -25 3 -28 7 -31 46 l-3 42 55 0 c30 0 58 5 61 10 4 6
-18 10 -59 10 l-66 0 0 -120z"/>
<path d="M301 453 c12 -33 58 -113 64 -113 3 0 5 14 5 30 0 17 -5 30 -13 30
-19 0 -37 34 -26 51 7 11 9 11 9 -3 0 -10 7 -18 15 -18 8 0 15 4 15 9 0 18
-31 41 -55 41 -23 0 -24 -2 -14 -27z"/>
<path d="M395 420 c3 -5 8 -10 11 -10 2 0 4 5 4 10 0 6 -5 10 -11 10 -5 0 -7
-4 -4 -10z"/>
<path d="M442 380 c0 -14 2 -19 5 -12 2 6 2 18 0 25 -3 6 -5 1 -5 -13z"/>
<path d="M230 376 c0 -12 60 -69 66 -63 4 4 15 0 25 -9 26 -24 41 -14 26 16
-10 19 -20 25 -45 24 -18 -1 -30 2 -27 7 3 4 -3 13 -14 18 -21 12 -31 14 -31
7z"/>
<path d="M391 313 c-1 -36 3 -63 9 -63 12 0 12 77 0 105 -6 14 -9 2 -9 -42z"/>
</g>
</svg>
